<svg
  version="1.1"
  aria-labelledby="java-logo-title"
  role="img"
  xmlns="http://www.w3.org/2000/svg"
  viewBox="0 0 64 64">
  <title id="java-logo-title">Java logo</title>
  <path d="M46.42,13.07S24.51,18.54,35,30.6c3.09,3.55-.81,6.75-0.81,6.75s7.84-4,4.24-9.11C35,23.51,32.46,21.17,46.42,13.07ZM32.1,16.88C45.05,6.65,38.4,0,38.4,0c2.68,10.57-9.46,13.76-13.84,20.34-3,4.48,1.46,9.3,7.53,14.77C29.73,29.77,21.71,25.09,32.1,16.88Z" transform="translate(-8.4)" fill="#e57125"/>
  <path d="M23.6,49.49c-9.84,2.75,6,8.43,18.51,3.06a23.06,23.06,0,0,1-3.52-1.72,36.62,36.62,0,0,1-13.25.56C21.16,50.92,23.6,49.49,23.6,49.49Zm17-5.36a51.7,51.7,0,0,1-17.1.82c-4.19-.43-1.45-2.46-1.45-2.46-10.84,3.6,6,7.68,21.18,3.25A7.59,7.59,0,0,1,40.62,44.13ZM51.55,54.68s1.81,1.49-2,2.64c-7.23,2.19-30.1,2.85-36.45.09-2.28-1,2-2.37,3.35-2.66a8.69,8.69,0,0,1,2.21-.25c-2.54-1.79-16.41,3.51-7,5C37.15,63.67,58.17,57.67,51.55,54.68ZM42.77,39.12a20.42,20.42,0,0,1,2.93-1.57s-4.83.86-9.65,1.27A87.37,87.37,0,0,1,20.66,39c-7.51-1,4.12-3.77,4.12-3.77A22,22,0,0,0,14.7,37.61C8.14,40.79,31,42.23,42.77,39.12Zm2.88,7.77a1,1,0,0,1-.24.31C61.44,43,55.54,32.35,47.88,35a2.19,2.19,0,0,0-1,.79,9,9,0,0,1,1.37-.37C52.1,34.66,57.65,40.65,45.64,46.89Zm0.43,14.75a94.76,94.76,0,0,1-29.17.45s1.47,1.22,9,1.7c11.53,0.74,29.22-.41,29.64-5.86C55.6,57.94,54.79,60,46.08,61.65Z" transform="translate(-8.4)" fill="#5482a2"/>
</svg>
