<?xml version="1.0" encoding="UTF-8" standalone="no"?>
<!-- Created with Inkscape (http://www.inkscape.org/) -->

<svg
   xmlns:dc="http://purl.org/dc/elements/1.1/"
   xmlns:cc="http://creativecommons.org/ns#"
   xmlns:rdf="http://www.w3.org/1999/02/22-rdf-syntax-ns#"
   xmlns:svg="http://www.w3.org/2000/svg"
   xmlns="http://www.w3.org/2000/svg"
   xmlns:sodipodi="http://sodipodi.sourceforge.net/DTD/sodipodi-0.dtd"
   xmlns:inkscape="http://www.inkscape.org/namespaces/inkscape"
   id="svg3047"
   version="1.1"
   inkscape:version="0.48.5 r10040"
   width="1043.6594"
   height="975.05737"
   sodipodi:docname="python.svg">
  <metadata
     id="metadata3053">
    <rdf:RDF>
      <cc:Work
         rdf:about="">
        <dc:format>image/svg+xml</dc:format>
        <dc:type
           rdf:resource="http://purl.org/dc/dcmitype/StillImage" />
        <dc:title></dc:title>
      </cc:Work>
    </rdf:RDF>
  </metadata>
  <defs
     id="defs3051" />
  <sodipodi:namedview
     pagecolor="#ffffff"
     bordercolor="#666666"
     borderopacity="1"
     objecttolerance="10"
     gridtolerance="10"
     guidetolerance="10"
     inkscape:pageopacity="0"
     inkscape:pageshadow="2"
     inkscape:window-width="1403"
     inkscape:window-height="807"
     id="namedview3049"
     showgrid="false"
     inkscape:zoom="0.54115914"
     inkscape:cx="503.37138"
     inkscape:cy="493.71876"
     inkscape:window-x="31"
     inkscape:window-y="0"
     inkscape:window-maximized="0"
     inkscape:current-layer="svg3047"
     fit-margin-top="0"
     fit-margin-left="0"
     fit-margin-right="0"
     fit-margin-bottom="0" />
  <path
     id="path3940"
     style="fill:none;stroke:#000000;stroke-width:15;stroke-linecap:round;stroke-linejoin:round;stroke-miterlimit:4;stroke-opacity:1"
     d="m 897.12442,767.0173 c -18.4956,34.0346 -61.0797,46.6314 -95.1142,28.1358 -34.0346,-18.4957 -46.6314,-61.0798 -28.1357,-95.1143 6.8679,-12.638 17.4554,-22.8589 30.3276,-29.2773 m -105.4049,35.1133 c 13.3968,35.7097 -4.6915,75.5185 -40.4012,88.9153 -35.7098,13.3968 -75.5185,-4.6915 -88.9153,-40.4012 -11.4738,-30.5839 0.05,-65.0238 27.6202,-82.5432 m -19.2141,-57.8739 c -45.4904,-0.9303 -81.5046,-33.9074 -80.4399,-73.6564 1.0647,-39.7489 38.8051,-71.2177 84.2956,-70.2874 8.8452,0.1809 17.5993,1.6056 25.9261,4.2192 M 108.26962,441.612 7.4813945,542.4002 60.275214,528.0018 l -1.5998,35.1959 0,31.9963 84.790106,-110.3871 1.5998,3.1996 m 305.5642,-332.761 c 0,5.3013 -3.9395,9.5989 -8.799,9.5989 -4.8595,0 -8.799,-4.2976 -8.799,-9.5989 0,-5.3013 3.9395,-9.5988 8.799,-9.5988 4.8595,0 8.799,4.2975 8.799,9.5988 z m -151.9822,-23.99719 c 0,5.3013 -3.9395,9.5989 -8.799,9.5989 -4.8595,0 -8.799,-4.2976 -8.799,-9.5989 0,-5.3013 3.9395,-9.5988 8.799,-9.5988 4.8595,0 8.799,4.2975 8.799,9.5988 z m 112.2357,-41.16756 c 0,45.60788 -40.0113,82.58038 -89.3678,82.58038 -49.3565,0 -89.3679,-36.9725 -89.3679,-82.58038 0,-45.60788 40.0114,-82.58038 89.3679,-82.58038 49.3565,0 89.3678,36.9725 89.3678,82.58038 z m 67.4277,-58.58583 c -27.1907,0 -51.5466,11.23347 -67.9376,28.9375 3.4234,8.75861 5.3126,18.21297 5.3126,28.0625 0,20.48981 -8.0982,39.19051 -21.4688,53.62501 12.4276,31.7989 45.3955,54.5313 84.0938,54.5313 49.3564,0 89.3437,-36.9547 89.3437,-82.5626 0,-45.60786 -39.9873,-82.59371 -89.3437,-82.59371 z m -243.6559,88.55471 c 0,0 -54.2404,29.2747 -75.1912,51.194 -25.9737,27.1743 -47.1864,61.77687 -59.1931,95.98867 -12.006606,34.2118 -16.951206,69.3115 -12.798506,103.9879 3.592,29.9944 14.854906,59.9156 31.996306,84.7901 14.1477,20.5303 35.1319,35.9396 55.9934,49.5942 33.9369,22.2129 70.3509,44.6957 110.3871,51.194 32.843,5.3308 99.1884,-11.1987 99.1884,-11.1987 0,0 60.6393,-20.3195 83.1903,-41.5951 17.8976,-16.8854 28.8671,-40.6993 36.7956,-63.9926 6.4156,-18.8484 7.9991,-59.193 7.9991,-59.193 l 0,0 m -113.5867,159.9813 c 0,0 -22.585,69.4977 -25.597,105.5876 -2.49,29.8355 0.7455,60.1889 6.3992,89.5895 7.2931,37.9259 15.5318,77.1473 35.1959,110.3871 14.9804,25.3226 35.7725,48.5126 60.7929,63.9925 23.2391,14.3778 51.5007,19.1289 78.3908,23.9972 25.7604,4.6638 51.3502,1.3742 76.7911,-4.7995 28.3515,-6.8801 49.8686,-23.9564 76.791,-35.1958 13.7262,-5.7303 28.392,-12.6547 43.1949,-11.1987 17.0902,1.681 31.7953,13.3552 46.3946,22.3974 22.9428,14.2099 39.0786,39.2217 63.9925,49.5942 22.838,9.5082 49.8169,16.4365 73.5914,9.5988 26.5757,-7.6434 48.8461,-29.6577 63.9925,-52.7938 10.63218,-16.2406 18.96468,-37.0931 23.38958,-55.9934 6.0561,-25.8679 3.0965,-52.1128 7.0068,-78.3909 2.765,-18.5814 6.3993,-55.9934 6.3993,-55.9934 0,0 -26.834,36.4165 -44.79478,49.5942 -11.3512,8.3283 -24.3228,17.1836 -38.3955,17.5979 -20.5894,0.6062 -40.7402,-10.5539 -57.5932,-22.3974 -17.9364,-12.6049 -29.3557,-32.592 -43.195,-49.5941 -10.5709,-12.9867 -16.5725,-30.5458 -30.3964,-39.9954 -12.8201,-8.7634 -29.2845,-12.0344 -44.7948,-12.7985 -17.8648,-0.8801 -32.3874,7.2606 -47.9944,15.9982 -11.8632,6.6416 -21.2631,15.6518 -31.9962,23.9972 -10.9214,8.4917 -22.9704,18.6999 -36.7957,19.1977 -17.4243,0.6274 -36.0418,-8.1037 -47.9944,-20.7976 -17.1157,-18.1772 -22.8677,-45.5742 -25.597,-70.3917 -2.7043,-24.59 5.1748,-49.2519 9.5989,-73.5914 4.6034,-25.326 11.8125,-50.1087 17.5979,-75.1912 2.7041,-11.7233 6.5404,-23.2535 7.9991,-35.1959 3.298,-27.0014 3.3429,-54.4443 1.5998,-81.5904 -1.6238,-25.2881 -5.8401,-50.4241 -11.1987,-75.1912 -4.1048,-18.9724 -9.8073,-37.5958 -15.9981,-55.9935 -6.5693,-19.5227 -10.0467,-41.10827 -22.3974,-57.59317 -5.2443,-6.9997 -20.7976,-15.9982 -20.7976,-15.9982 l 0,0"
     inkscape:connector-curvature="0" />
</svg>
