<svg id="Layer_1" xmlns="http://www.w3.org/2000/svg" viewBox="0 0 512 512"><style>.st0{fill:#d9d9d8}.st1{fill:#465761}.st2{fill:#596871}.st3{fill:#99ca3c}.st4{fill:#c0bfbf}.st5{fill:#a3a3a2}</style><path class="st0" d="M390 393.9c0 11-8.9 20-20 20H20c-11 0-20-8.9-20-20V118.1c0-11.1 8.9-20 20-20h350.1c11 0 20 8.9 20 20v275.8h-.1z"/><path class="st1" d="M366.9 377.5c0 9.7-7.9 17.6-17.6 17.6H40.7c-9.7 0-17.6-7.9-17.6-17.6V134.4c0-9.7 7.9-17.6 17.6-17.6h308.5c9.7 0 17.6 7.9 17.6 17.6v243.1h.1z"/><path class="st2" d="M40.7 116.8c-9.7 0-17.6 7.9-17.6 17.6v243.1c0 9.7 7.9 17.6 17.6 17.6h61.7l191.4-278.3H40.7z"/><path class="st3" d="M104.2 305.3l-17.6-17.6 44.1-45.2-43.5-45.8 17-17.1 62.9 62.9-62.9 62.8zm91.2-25.5h90.4v25.5h-90.4v-25.5z"/><path class="st4" d="M419.5 249.8c-21.7-2.1-39.1-19.6-41.1-41.2-1.4-14.9 4.4-28.4 14.2-37.7l-12.8-13.8-28.1-12-14.5 25.7 25.6 18.7 3.5 26.5c-8.4 6.2-27.2 16.3-27.2 16.3l-1.5 4.4 15.2 26.4 27.7-12.1 29.1 16.8 1.3 28h29.3l2.4-28.7 32.5-17.9-19.7-11.6c-9.3 8.7-22 13.5-35.9 12.2z"/><path class="st5" d="M421 245.4c-21.7-2.1-39.1-19.6-41.1-41.2-1.4-14.9 4.4-28.4 14.2-37.7l-12.9-13.7-27.1-12-15.1 26.4 23.7 17.5v30.1c-12.4 9.2-23.7 17.6-23.7 17.6l15.2 26.4 27.7-12.1 25.1 14.8 3.4 30h30.4s1.6-14.3 3.3-29.9l25.4-14.8-12.7-13.5c-9.3 8.6-22 13.4-35.8 12.1z"/><path class="st4" d="M488.2 184.8l23.8-17.6-15.2-26.4-27.5 12.1-25.4-14.8-3.3-30h-30.4l-3.2 30.2-25.8 14.5 12.9 13.7c8.2-7.7 19.2-12.5 31.4-12.5 25.3 0 45.8 20.5 45.8 45.8 0 13.2-5.6 25.1-14.6 33.5l12.7 13.5 27.4 12 15.2-26.4s-11.4-8.4-23.8-17.6v-30z"/><path class="st5" d="M425.5 176.6c12.8 0 23.3 10.4 23.3 23.3 0 6.7-2.9 12.8-7.5 17l15.4 16.5c9-8.4 14.6-20.3 14.6-33.5 0-25.3-20.5-45.8-45.8-45.8-12.2 0-23.2 4.7-31.4 12.5l15.4 16.4c4.2-4 9.8-6.4 16-6.4z"/><path class="st4" d="M379.7 199.8c0 25.3 20.5 45.8 45.8 45.8 12.1 0 23.1-4.7 31.2-12.3l-15.4-16.5c-4.2 3.9-9.7 6.2-15.8 6.2-12.8 0-23.3-10.4-23.3-23.3 0-6.7 2.8-12.6 7.3-16.9l-15.4-16.4c-8.9 8.5-14.4 20.3-14.4 33.4z"/></svg>