<?xml version="1.0" encoding="UTF-8" standalone="no"?>
<!-- Created with Inkscape (http://www.inkscape.org/) -->

<svg
   xmlns:dc="http://purl.org/dc/elements/1.1/"
   xmlns:cc="http://creativecommons.org/ns#"
   xmlns:rdf="http://www.w3.org/1999/02/22-rdf-syntax-ns#"
   xmlns:svg="http://www.w3.org/2000/svg"
   xmlns="http://www.w3.org/2000/svg"
   xmlns:xlink="http://www.w3.org/1999/xlink"
   xmlns:sodipodi="http://sodipodi.sourceforge.net/DTD/sodipodi-0.dtd"
   xmlns:inkscape="http://www.inkscape.org/namespaces/inkscape"
   width="1052.3622"
   height="744.09448"
   id="svg4602"
   version="1.1"
   inkscape:version="0.48.4 r9939"
   sodipodi:docname="ejercicio_3.svg">
  <defs
     id="defs4604">
    <linearGradient
       id="linearGradient5143">
      <stop
         style="stop-color:#0b1728;stop-opacity:1;"
         offset="0"
         id="stop5145" />
      <stop
         style="stop-color:#3065b0;stop-opacity:1;"
         offset="1"
         id="stop5147" />
    </linearGradient>
    <linearGradient
       id="linearGradient5133">
      <stop
         style="stop-color:#ffffff;stop-opacity:1;"
         offset="0"
         id="stop5135" />
      <stop
         style="stop-color:#fff3c1;stop-opacity:1;"
         offset="1"
         id="stop5137" />
    </linearGradient>
    <radialGradient
       inkscape:collect="always"
       xlink:href="#linearGradient5133"
       id="radialGradient5139"
       cx="620.71429"
       cy="416.95163"
       fx="620.71429"
       fy="416.95163"
       r="187.92857"
       gradientTransform="matrix(1,0,0,0.93538581,0,26.940992)"
       gradientUnits="userSpaceOnUse" />
    <linearGradient
       inkscape:collect="always"
       xlink:href="#linearGradient5143"
       id="linearGradient5149"
       x1="5.6428571"
       y1="48.380192"
       x2="1031.5001"
       y2="682.66589"
       gradientUnits="userSpaceOnUse" />
    <filter
       inkscape:collect="always"
       id="filter3769">
      <feGaussianBlur
         inkscape:collect="always"
         stdDeviation="0.90178574"
         id="feGaussianBlur3771" />
    </filter>
  </defs>
  <sodipodi:namedview
     id="base"
     pagecolor="#ffffff"
     bordercolor="#666666"
     borderopacity="1.0"
     inkscape:pageopacity="0.0"
     inkscape:pageshadow="2"
     inkscape:zoom="0.7"
     inkscape:cx="478.1929"
     inkscape:cy="426.71387"
     inkscape:document-units="px"
     inkscape:current-layer="layer1"
     showgrid="false"
     inkscape:window-width="1366"
     inkscape:window-height="705"
     inkscape:window-x="-8"
     inkscape:window-y="-8"
     inkscape:window-maximized="1" />
  <metadata
     id="metadata4607">
    <rdf:RDF>
      <cc:Work
         rdf:about="">
        <dc:format>image/svg+xml</dc:format>
        <dc:type
           rdf:resource="http://purl.org/dc/dcmitype/StillImage" />
        <dc:title></dc:title>
      </cc:Work>
    </rdf:RDF>
  </metadata>
  <g
     inkscape:label="Capa 1"
     inkscape:groupmode="layer"
     id="layer1"
     transform="translate(0,-308.2677)">
    <path
       sodipodi:type="arc"
       style="color:#000000;fill:none;stroke:#000000;stroke-width:3;stroke-linecap:round;stroke-linejoin:round;stroke-miterlimit:4;stroke-opacity:1;stroke-dasharray:none;marker:none;visibility:visible;display:inline;overflow:visible;enable-background:accumulate"
       id="path5155"
       sodipodi:cx="368.57144"
       sodipodi:cy="439.80878"
       sodipodi:rx="345.71429"
       sodipodi:ry="277.14285"
       d="M 23.186191,427.71997 C 31.514563,274.80388 192.90029,156.25324 383.65129,162.9297 c 123.60966,4.32646 234.91129,61.27875 291.85062,149.338"
       transform="translate(260,298.2677)"
       sodipodi:start="3.1852259"
       sodipodi:end="5.8049651"
       sodipodi:open="true" />
    <rect
       style="color:#000000;fill:url(#linearGradient5149);fill-opacity:1;fill-rule:nonzero;stroke:#000000;stroke-width:3;stroke-linecap:round;stroke-linejoin:round;stroke-miterlimit:4;stroke-opacity:1;stroke-dasharray:none;marker:none;visibility:visible;display:inline;overflow:visible;enable-background:accumulate"
       id="rect5141"
       width="1060"
       height="748.57141"
       x="-4.2857141"
       y="-3.0483751"
       transform="translate(0,308.2677)"
       inkscape:export-filename="C:\Users\fitorec\codes\fitorec.github.com\ieso\informatica-4\ejercicio_3.png"
       inkscape:export-xdpi="84.893143"
       inkscape:export-ydpi="84.893143" />
    <path
       sodipodi:type="arc"
       style="color:#000000;fill:url(#radialGradient5139);fill-opacity:1;fill-rule:nonzero;stroke:#000000;stroke-width:2;stroke-linecap:round;stroke-linejoin:round;stroke-miterlimit:4;stroke-opacity:1;stroke-dasharray:none;marker:none;visibility:visible;display:inline;overflow:visible;enable-background:accumulate;opacity:1;filter:url(#filter3769)"
       id="path4623"
       sodipodi:cx="620.71429"
       sodipodi:cy="416.95163"
       sodipodi:rx="186.42857"
       sodipodi:ry="174.28572"
       d="m 807.14287,416.95163 c 0,96.25535 -83.46692,174.28572 -186.42858,174.28572 -102.96165,0 -186.42857,-78.03037 -186.42857,-174.28572 0,-96.25535 83.46692,-174.28572 186.42857,-174.28572 102.96166,0 186.42858,78.03037 186.42858,174.28572 z"
       transform="translate(0,308.2677)" />
    <path
       style="fill:#090909;opacity:0.7"
       d="m 627.93368,927.16493 c -6.52678,-2.55981 -9.42005,-5.22271 -13.67562,-12.58677 -4.21737,-7.29796 -5.20215,-8.17938 -7.70874,-6.89965 -1.02298,0.52228 -2.40397,0.75047 -3.06882,0.50708 -0.95336,-0.349 -0.65939,-1.49897 1.39095,-5.44119 1.97761,-3.80239 3.39433,-5.38536 5.91977,-6.61443 1.826,-0.88867 4.02465,-2.64168 4.8859,-3.8956 2.00088,-2.91314 4.93412,-12.08807 4.1056,-12.84199 -0.34676,-0.31553 -3.75642,-0.0395 -7.577,0.6132 -4.75649,0.81272 -11.87412,1.11736 -22.57619,0.96626 -17.6028,-0.24851 -18.20489,-0.0967 -26.78084,6.75273 -2.31256,1.847 -5.7505,3.75527 -7.63985,4.24059 -2.95649,0.75946 -3.83684,0.64561 -6.3176,-0.81699 -3.62477,-2.1371 -4.85567,-2.12809 -8.7503,0.0641 -3.05803,1.72121 -3.21451,1.72838 -6.53626,0.29943 -1.87178,-0.80519 -4.09861,-2.20125 -4.94852,-3.10234 -2.73064,-2.89511 -8.71472,-6.39959 -12.05971,-7.06257 -1.78804,-0.35441 -3.36431,-1.00612 -3.50285,-1.44828 -0.13852,-0.44215 4.43895,-2.24832 10.17217,-4.01371 6.18037,-1.90308 12.44309,-4.47227 15.38356,-6.31092 6.82841,-4.2697 34.27469,-30.19426 36.53813,-34.51231 0.99302,-1.89443 2.05156,-4.91235 2.3523,-6.70647 0.54675,-3.26182 0.54646,-3.26222 -4.38242,-5.91584 l -4.9292,-2.6538 -11.87548,1.25494 c -14.88332,1.57278 -18.2765,2.12764 -18.90037,3.09062 -0.27303,0.42143 -0.83266,3.03546 -1.2436,5.80893 -1.12166,7.57007 -5.26487,10.77375 -10.48598,8.10813 -1.22811,-0.627 -2.55283,-0.58071 -4.71374,0.16471 -2.69219,0.92869 -3.13375,0.86962 -4.23455,-0.56651 -1.1867,-1.54821 -1.2885,-1.55189 -2.96189,-0.10722 -3.12619,2.69893 -9.63199,3.98659 -21.43424,4.24239 -12.01475,0.2604 -15.55097,1.06844 -25.82752,5.90174 -5.99469,2.81945 -6.98794,2.2947 -7.28374,-3.84812 -0.11116,-2.30823 -0.61573,-4.67222 -1.12127,-5.25332 -0.50553,-0.58109 -0.72018,-1.24633 -0.477,-1.47832 0.24319,-0.23199 -0.1292,-1.4724 -0.82754,-2.75645 -0.86922,-1.5983 -1.01106,-2.79568 -0.44969,-3.79632 1.13831,-2.02902 1.02853,-8.49536 -0.16353,-9.63254 -0.73252,-0.6988 -0.58393,-2.55704 0.58217,-7.28074 1.28486,-5.20476 1.93581,-6.4767 3.62897,-7.09081 1.82655,-0.66247 1.99505,-1.09521 1.4687,-3.77178 -0.56419,-2.86891 -0.4886,-3.00055 1.47906,-2.576 1.1405,0.24609 4.41808,1.27311 7.28352,2.28228 6.47168,2.27927 16.85102,2.98445 26.2211,1.78148 5.76275,-0.73984 7.97471,-0.68005 12.01912,0.3249 4.02189,0.99934 5.20824,1.03327 6.29096,0.17996 0.73389,-0.57842 2.93221,-1.11381 4.88518,-1.18977 1.95296,-0.0759 4.72306,-0.36447 6.15578,-0.64113 3.77925,-0.72977 6.23164,1.53374 8.49694,7.84245 l 1.92283,5.35495 5.2099,0.6622 c 5.82893,0.74086 18.2053,0.47713 19.13284,-0.40771 0.33122,-0.31596 -0.22463,-1.57726 -1.23523,-2.80287 -1.0106,-1.22561 -2.41152,-4.07248 -3.11314,-6.32637 -2.56613,-8.24324 1.01859,-15.39109 10.21362,-20.36572 6.86791,-3.71564 14.16842,-9.43318 19.44793,-15.23105 7.20713,-7.9148 17.74683,-21.37453 16.73737,-21.37453 -1.75989,0 -9.20497,4.04664 -15.97498,8.68289 -6.76869,4.63535 -15.4453,11.47663 -28.20549,22.23929 -5.89202,4.96967 -18.51244,12.15146 -21.35352,12.15146 -0.64703,0 -1.4246,-0.74591 -1.7279,-1.65756 -0.81477,-2.44891 -2.48055,-3.01363 -13.42048,-4.54963 -13.02221,-1.82837 -17.79359,-3.92978 -20.43133,-8.99835 -0.50819,-0.97648 -1.89103,-1.90432 -3.07301,-2.06187 -3.02622,-0.40337 -4.31677,-1.64175 -4.33915,-4.16375 -0.0107,-1.19708 -0.78341,-3.10839 -1.71732,-4.24735 -0.93391,-1.13897 -1.70669,-2.31861 -1.71731,-2.62143 -0.0107,-0.30281 3.00893,-0.79601 6.71012,-1.09599 24.11605,-1.9546 39.7896,-4.47978 54.48675,-8.77837 8.30813,-2.42996 37.89153,-15.22131 38.49598,-16.645 0.42758,-1.00713 8.93821,-6.19738 11.26284,-6.8687 2.43252,-0.70249 2.0647,-2.40624 -0.60002,-2.77922 -3.33638,-0.46701 -1.46307,-2.18169 3.22492,-2.95183 4.73548,-0.77793 5.30703,-1.31243 3.19309,-2.98608 -0.93077,-0.7369 -3.11508,-0.86505 -7.72312,-0.45312 -4.29171,0.38366 -6.6182,0.27663 -7.00621,-0.32228 -0.31951,-0.49317 0.12764,-1.11034 0.99367,-1.3715 2.94884,-0.88924 11.55621,-4.89591 11.5582,-5.38025 8.8e-4,-0.26542 -4.54889,-1.33177 -10.11109,-2.36965 -11.9957,-2.23834 -17.6335,-3.95501 -18.28179,-5.56665 -0.26073,-0.64815 -0.29821,-1.3462 -0.0833,-1.55122 0.21491,-0.20499 6.61273,-1.50068 14.21739,-2.87927 18.8183,-3.41144 29.13762,-6.00668 30.18551,-7.59145 0.73836,-1.11668 -1.06893,-11.09177 -3.38212,-18.66713 -0.16868,-0.5524 -2.64868,-2.13217 -5.51112,-3.51061 -4.29605,-2.06878 -5.49182,-3.12597 -6.85084,-6.05685 -1.76917,-3.81527 -10.97591,-13.86418 -12.7023,-13.86418 -0.57557,0 -2.19414,-1.14364 -3.59682,-2.54143 -3.56514,-3.55271 -10.92634,-7.39864 -14.16118,-7.39864 -1.75783,0 -2.71633,-0.41189 -2.71633,-1.16727 0,-0.79177 1.9118,-1.49322 5.94259,-2.1804 7.18558,-1.22501 11.62571,-0.1256 21.84349,5.4086 3.58179,1.94001 8.53588,4.35453 11.00909,5.36564 2.4732,1.0111 5.17128,2.54939 5.9957,3.41844 0.82443,0.86903 2.30543,1.58008 3.29111,1.58008 0.98568,0 6.618,2.27496 12.51626,5.05548 9.76984,4.60563 11.38046,5.70134 18.10029,12.31358 4.05688,3.99196 8.31341,7.73661 9.45894,8.32146 1.92438,0.98248 3.34292,0.37674 18.65248,-7.9648 9.11333,-4.96549 19.3129,-10.98512 22.66568,-13.37695 3.35279,-2.39183 6.46096,-4.34877 6.90703,-4.34877 1.3747,0 0.89998,4.68118 -0.95411,9.40852 -5.16208,13.16172 -16.12716,23.95729 -36.9082,36.3376 -3.32304,1.97971 -3.48852,2.27019 -3.16079,5.54854 0.30524,3.05325 0.88477,3.84761 4.93577,6.76534 4.9267,3.54845 6.69423,6.47901 6.84596,11.35058 0.10771,3.45862 -0.9927,3.76274 -6.23296,1.72266 -3.59704,-1.40036 -6.62852,-0.0125 -9.05923,4.14744 -1.57766,2.70004 -1.58165,2.94695 -0.11084,6.84884 1.51288,4.01351 1.50944,4.06341 -0.40635,5.89101 -1.80828,1.72504 -2.08409,1.76196 -4.3017,0.57606 -1.30323,-0.69694 -3.151,-2.45068 -4.10615,-3.8972 -0.95515,-1.44651 -2.02969,-2.64438 -2.38787,-2.66193 -1.34121,-0.0657 -0.5863,3.08074 1.0854,4.52395 2.0603,1.77872 2.20769,3.6451 0.46177,5.84714 -1.84979,2.33305 -1.63628,3.49002 1.74905,9.47715 1.67443,2.9613 5.40346,10.0404 8.28675,15.73132 2.88331,5.69093 5.90135,11.04377 6.70678,11.89521 0.80542,0.85145 4.00423,2.78275 7.10846,4.29177 3.10422,1.50903 8.76997,5.14179 12.59055,8.0728 3.8206,2.93102 8.19703,5.94188 9.72542,6.69082 3.73607,1.83075 8.71508,1.71648 12.85078,-0.29495 1.87346,-0.91117 3.55009,-1.65667 3.72584,-1.65667 0.17575,0 0.0621,1.11825 -0.25259,2.48501 l -0.57214,2.48502 7.23258,-0.002 c 6.37127,-0.002 49.55188,-2.49722 63.67305,-3.68024 5.67139,-0.47512 8.5406,0.42164 6.76589,2.11465 -0.88492,0.84419 -57.24817,4.75013 -70.03576,4.85344 -2.70736,0.0219 -3.89427,0.58757 -6.13985,2.92631 -2.15803,2.24755 -3.45293,2.89474 -5.76115,2.87942 -4.44235,-0.0295 -9.23016,-1.27089 -10.84579,-2.81214 -1.76273,-1.68157 -4.28026,-1.07755 -7.50368,1.80034 -2.06296,1.84183 -2.84126,2.0311 -6.42514,1.56249 -2.24283,-0.29326 -5.25168,-1.09181 -6.68634,-1.77457 -1.43467,-0.68272 -3.57911,-1.24133 -4.76542,-1.24133 -2.09274,0 -2.14088,0.13016 -1.61806,4.37384 0.29637,2.40562 1.71332,8.0901 3.14875,12.63217 3.17035,10.03178 3.20958,10.98819 0.49108,11.97418 -2.38642,0.86554 -5.98188,5.85175 -8.34001,11.56599 -2.2289,5.40103 -4.58892,25.5094 -3.8622,32.90746 0.50461,5.13705 1.01767,6.51838 3.54951,9.55641 1.88599,2.26308 2.96267,4.4613 2.96804,6.05976 0.0137,4.05756 3.48013,7.87032 10.5152,11.56554 9.53617,5.00895 6.90229,6.41909 -5.42122,2.90247 -6.0008,-1.7124 -10.31589,-5.15137 -11.61884,-9.25983 -0.72862,-2.2975 -4.66556,-6.47407 -6.10262,-6.47407 -0.56261,0 -2.08034,0.79348 -3.37273,1.76328 -1.67444,1.25646 -2.61786,1.50757 -3.28236,0.87367 -1.52402,-1.45386 1.01345,-8.38521 4.36547,-11.92467 4.0608,-4.28788 4.40138,-8.12815 1.52174,-17.15802 -1.22422,-3.83886 -2.22587,-7.82395 -2.22587,-8.85575 0,-1.03178 -0.33896,-2.07583 -0.75324,-2.32009 -0.75743,-0.44654 -9.2939,4.39173 -16.01466,9.07673 -6.59216,4.59537 -22.30627,23.87057 -22.30627,27.36127 0,0.995 0.53545,2.23299 1.18988,2.75111 0.65441,0.51812 1.40489,2.47137 1.6677,4.34054 0.80687,5.73878 5.44599,13.64822 9.56713,16.31146 2.00152,1.29345 4.32292,2.58916 5.15867,2.87936 0.83575,0.29019 1.51955,0.91207 1.51955,1.38197 0,1.41082 -3.59869,0.93609 -9.019,-1.18976 z m 50.6977,-118.68632 c -5.7e-4,-2.01433 -10.54957,-15.94698 -13.81652,-18.24826 -1.47459,-1.0387 -2.68105,-2.27656 -2.68105,-2.7508 0,-1.61993 -13.25915,-19.86015 -14.21563,-19.556 -1.07453,0.34169 -1.96196,3.28699 -2.73066,9.06293 -0.77923,5.85496 -3.9527,8.50034 -11.691,9.74549 -3.34902,0.53886 -6.29835,1.30269 -6.55405,1.69737 -0.99353,1.53357 4.74798,3.7287 22.68849,8.67443 18.08898,4.98666 22.92262,7.07508 22.92262,9.90396 0,1.5274 1.94668,2.92047 4.08109,2.92047 1.3233,0 1.99698,-0.48908 1.99671,-1.44959 z m -76.72319,-72.27258 c 0.70549,0 1.06389,-0.33775 0.79644,-0.75057 -0.58942,-0.9098 -3.76466,-0.21768 -4.54793,0.99133 -0.35407,0.54652 -4e-4,0.66314 0.95287,0.31418 0.83375,-0.30522 2.09315,-0.55494 2.79862,-0.55494 z"
       id="path4621"
       inkscape:connector-curvature="0" />
    <text
       xml:space="preserve"
       style="font-size:40px;font-style:normal;font-weight:normal;line-height:125%;letter-spacing:0px;word-spacing:0px;fill:#d7eef4;fill-opacity:1;stroke:none;font-family:Sans"
       id="text5151"
       sodipodi:linespacing="125%"
       transform="translate(21.428571,11.428571)"><textPath
         xlink:href="#path5155"
         id="textPath5157"><tspan
   id="tspan5153">Mi nombre completo empezando con apellidos</tspan></textPath></text>
  </g>
</svg>
